<svg width="282" height="112" viewBox="0 0 282 112" fill="none" xmlns="http://www.w3.org/2000/svg">
<rect x="2" y="2" width="278" height="108" rx="54" fill="white" stroke="#110041" stroke-width="4"/>
<path d="M76.576 63.272C76.256 64.024 75.808 64.56 75.232 64.88C74.656 65.184 73.984 65.336 73.216 65.336C72.496 65.336 71.816 65.2 71.176 64.928C70.552 64.656 70 64.256 69.52 63.728C69.04 63.2 68.656 62.56 68.368 61.808C68.096 61.056 67.96 60.2 67.96 59.24V58.856C67.96 57.912 68.096 57.064 68.368 56.312C68.64 55.56 69.008 54.92 69.472 54.392C69.936 53.864 70.472 53.464 71.08 53.192C71.704 52.904 72.368 52.76 73.072 52.76C73.92 52.76 74.6 52.904 75.112 53.192C75.64 53.48 76.056 53.928 76.36 54.536H76.792V53.096H79.816V61.4C79.816 61.88 80.032 62.12 80.464 62.12H80.92V65H78.856C78.312 65 77.864 64.84 77.512 64.52C77.176 64.2 77.008 63.784 77.008 63.272H76.576ZM73.888 62.456C74.768 62.456 75.472 62.168 76 61.592C76.528 61 76.792 60.2 76.792 59.192V58.904C76.792 57.896 76.528 57.104 76 56.528C75.472 55.936 74.768 55.64 73.888 55.64C73.008 55.64 72.304 55.936 71.776 56.528C71.248 57.104 70.984 57.896 70.984 58.904V59.192C70.984 60.2 71.248 61 71.776 61.592C72.304 62.168 73.008 62.456 73.888 62.456ZM86.0873 65H83.0633V48.2H86.0873V54.824H86.5193C86.8393 54.168 87.3033 53.664 87.9113 53.312C88.5193 52.944 89.2953 52.76 90.2393 52.76C90.9433 52.76 91.6073 52.896 92.2313 53.168C92.8713 53.44 93.4233 53.84 93.8873 54.368C94.3673 54.88 94.7433 55.512 95.0153 56.264C95.3033 57.016 95.4473 57.872 95.4473 58.832V59.264C95.4473 60.24 95.3113 61.104 95.0393 61.856C94.7673 62.608 94.3993 63.248 93.9353 63.776C93.4713 64.288 92.9193 64.68 92.2793 64.952C91.6553 65.208 90.9753 65.336 90.2393 65.336C89.6953 65.336 89.2233 65.28 88.8233 65.168C88.4233 65.056 88.0713 64.904 87.7673 64.712C87.4793 64.52 87.2313 64.304 87.0233 64.064C86.8313 63.808 86.6633 63.544 86.5193 63.272H86.0873V65ZM89.2553 62.456C90.1993 62.456 90.9593 62.168 91.5353 61.592C92.1273 61 92.4233 60.2 92.4233 59.192V58.904C92.4233 57.896 92.1273 57.104 91.5353 56.528C90.9593 55.936 90.1993 55.64 89.2553 55.64C88.3113 55.64 87.5433 55.944 86.9513 56.552C86.3753 57.144 86.0873 57.928 86.0873 58.904V59.192C86.0873 60.168 86.3753 60.96 86.9513 61.568C87.5433 62.16 88.3113 62.456 89.2553 62.456ZM109.927 59.192C109.927 60.184 109.759 61.064 109.423 61.832C109.087 62.584 108.631 63.224 108.055 63.752C107.479 64.264 106.815 64.656 106.063 64.928C105.327 65.2 104.551 65.336 103.735 65.336C102.919 65.336 102.135 65.2 101.383 64.928C100.647 64.656 99.9906 64.264 99.4146 63.752C98.8386 63.224 98.3826 62.584 98.0466 61.832C97.7106 61.064 97.5426 60.184 97.5426 59.192V58.904C97.5426 57.928 97.7106 57.064 98.0466 56.312C98.3826 55.544 98.8386 54.896 99.4146 54.368C99.9906 53.84 100.647 53.44 101.383 53.168C102.135 52.896 102.919 52.76 103.735 52.76C104.551 52.76 105.327 52.896 106.063 53.168C106.815 53.44 107.479 53.84 108.055 54.368C108.631 54.896 109.087 55.544 109.423 56.312C109.759 57.064 109.927 57.928 109.927 58.904V59.192ZM103.735 62.456C104.167 62.456 104.575 62.384 104.959 62.24C105.343 62.096 105.679 61.888 105.967 61.616C106.255 61.344 106.479 61.016 106.639 60.632C106.815 60.232 106.903 59.784 106.903 59.288V58.808C106.903 58.312 106.815 57.872 106.639 57.488C106.479 57.088 106.255 56.752 105.967 56.48C105.679 56.208 105.343 56 104.959 55.856C104.575 55.712 104.167 55.64 103.735 55.64C103.303 55.64 102.895 55.712 102.511 55.856C102.127 56 101.791 56.208 101.503 56.48C101.215 56.752 100.983 57.088 100.807 57.488C100.647 57.872 100.567 58.312 100.567 58.808V59.288C100.567 59.784 100.647 60.232 100.807 60.632C100.983 61.016 101.215 61.344 101.503 61.616C101.791 61.888 102.127 62.096 102.511 62.24C102.895 62.384 103.303 62.456 103.735 62.456ZM121.022 53.096H124.046V65H121.022V63.272H120.59C120.062 64.648 118.926 65.336 117.182 65.336C116.59 65.336 116.038 65.24 115.526 65.048C115.014 64.856 114.566 64.56 114.182 64.16C113.798 63.76 113.494 63.264 113.27 62.672C113.062 62.064 112.958 61.352 112.958 60.536V53.096H115.982V59.912C115.982 60.76 116.182 61.424 116.582 61.904C116.982 62.368 117.582 62.6 118.382 62.6C119.294 62.6 119.958 62.312 120.374 61.736C120.806 61.144 121.022 60.344 121.022 59.336V53.096ZM127.317 53.096H130.845V48.2H133.869V53.096H138.165V55.976H133.869V61.4C133.869 61.88 134.085 62.12 134.517 62.12H137.733V65H132.693C132.149 65 131.701 64.824 131.349 64.472C131.013 64.12 130.845 63.672 130.845 63.128V55.976H127.317V53.096ZM156.708 53.096H160.236V48.2H163.26V53.096H167.556V55.976H163.26V61.4C163.26 61.88 163.476 62.12 163.908 62.12H167.124V65H162.084C161.54 65 161.092 64.824 160.74 64.472C160.404 64.12 160.236 63.672 160.236 63.128V55.976H156.708V53.096ZM174.403 60.032C174.419 60.384 174.499 60.712 174.643 61.016C174.803 61.304 175.011 61.56 175.267 61.784C175.539 61.992 175.843 62.16 176.179 62.288C176.531 62.4 176.899 62.456 177.283 62.456C178.035 62.456 178.611 62.328 179.011 62.072C179.411 61.8 179.699 61.48 179.875 61.112L182.467 62.552C182.323 62.856 182.123 63.176 181.867 63.512C181.611 63.832 181.275 64.128 180.859 64.4C180.459 64.672 179.963 64.896 179.371 65.072C178.795 65.248 178.115 65.336 177.331 65.336C176.435 65.336 175.619 65.192 174.883 64.904C174.147 64.616 173.507 64.2 172.963 63.656C172.435 63.112 172.019 62.448 171.715 61.664C171.427 60.88 171.283 59.992 171.283 59V58.856C171.283 57.944 171.435 57.112 171.739 56.36C172.059 55.608 172.491 54.968 173.035 54.44C173.579 53.912 174.211 53.504 174.931 53.216C175.667 52.912 176.451 52.76 177.283 52.76C178.307 52.76 179.187 52.944 179.923 53.312C180.659 53.664 181.267 54.12 181.747 54.68C182.227 55.224 182.579 55.832 182.803 56.504C183.027 57.16 183.139 57.8 183.139 58.424V60.032H174.403ZM177.259 55.496C176.491 55.496 175.867 55.696 175.387 56.096C174.907 56.48 174.595 56.928 174.451 57.44H180.067C179.971 56.88 179.667 56.416 179.155 56.048C178.659 55.68 178.027 55.496 177.259 55.496ZM194.139 63.272C193.819 64.024 193.371 64.56 192.795 64.88C192.219 65.184 191.547 65.336 190.779 65.336C190.059 65.336 189.379 65.2 188.739 64.928C188.115 64.656 187.563 64.256 187.083 63.728C186.603 63.2 186.219 62.56 185.931 61.808C185.659 61.056 185.523 60.2 185.523 59.24V58.856C185.523 57.912 185.659 57.064 185.931 56.312C186.203 55.56 186.571 54.92 187.035 54.392C187.499 53.864 188.035 53.464 188.643 53.192C189.267 52.904 189.931 52.76 190.635 52.76C191.483 52.76 192.163 52.904 192.675 53.192C193.203 53.48 193.619 53.928 193.923 54.536H194.355V53.096H197.379V61.4C197.379 61.88 197.595 62.12 198.027 62.12H198.483V65H196.419C195.875 65 195.427 64.84 195.075 64.52C194.739 64.2 194.571 63.784 194.571 63.272H194.139ZM191.451 62.456C192.331 62.456 193.035 62.168 193.563 61.592C194.091 61 194.355 60.2 194.355 59.192V58.904C194.355 57.896 194.091 57.104 193.563 56.528C193.035 55.936 192.331 55.64 191.451 55.64C190.571 55.64 189.867 55.936 189.339 56.528C188.811 57.104 188.547 57.896 188.547 58.904V59.192C188.547 60.2 188.811 61 189.339 61.592C189.867 62.168 190.571 62.456 191.451 62.456ZM213.082 65H210.058V56.648C210.058 56.312 209.97 56.064 209.794 55.904C209.634 55.728 209.418 55.64 209.146 55.64C208.826 55.64 208.57 55.736 208.378 55.928C208.202 56.12 208.114 56.408 208.114 56.792V65H205.09V56.648C205.09 56.312 204.994 56.064 204.802 55.904C204.626 55.728 204.41 55.64 204.154 55.64C203.866 55.64 203.626 55.736 203.434 55.928C203.242 56.12 203.146 56.408 203.146 56.792V65H200.122V53.096H203.146V54.248H203.578C203.674 53.816 203.89 53.464 204.226 53.192C204.578 52.904 205.034 52.76 205.594 52.76C206.122 52.76 206.57 52.904 206.938 53.192C207.306 53.464 207.554 53.816 207.682 54.248H208.114C208.242 53.816 208.506 53.464 208.906 53.192C209.322 52.904 209.834 52.76 210.442 52.76C211.242 52.76 211.882 53.032 212.362 53.576C212.842 54.104 213.082 54.84 213.082 55.784V65Z" fill="#110041"/>
</svg>
