<svg width="187" height="187" viewBox="0 0 187 187" fill="none" xmlns="http://www.w3.org/2000/svg">
<path d="M22.6272 0.000255585L22.6272 22.6277L-0.000207901 22.6277" stroke="#110041" stroke-width="4"/>
<path d="M39.5979 16.971L39.5979 39.5984L16.9705 39.5984" stroke="#110041" stroke-width="4"/>
<path d="M56.5686 33.9417L56.5686 56.5691L33.9412 56.5691" stroke="#110041" stroke-width="4"/>
<path d="M73.5393 50.9124L73.5393 73.5398L50.9119 73.5398" stroke="#110041" stroke-width="4"/>
<path d="M90.5095 67.8826L90.5095 90.51L67.8821 90.51" stroke="#110041" stroke-width="4"/>
<path d="M107.48 84.8533L107.48 107.481L84.8528 107.481" stroke="#110041" stroke-width="4"/>
<path d="M124.451 101.824L124.451 124.451L101.824 124.451" stroke="#110041" stroke-width="4"/>
<path d="M141.421 118.795L141.421 141.422L118.794 141.422" stroke="#110041" stroke-width="4"/>
<path d="M158.392 135.765L158.392 158.393L135.764 158.393" stroke="#110041" stroke-width="4"/>
<path d="M175.363 152.735L175.363 175.363L152.735 175.363" stroke="#110041" stroke-width="4"/>
</svg>
