<svg width="187" height="187" viewBox="0 0 187 187" fill="none" xmlns="http://www.w3.org/2000/svg">
<path d="M186.676 22.6272L164.049 22.6272L164.049 -0.000208855" stroke="#110041" stroke-width="4"/>
<path d="M169.705 39.5979L147.078 39.5979L147.078 16.9705" stroke="#110041" stroke-width="4"/>
<path d="M152.735 56.5681L130.107 56.5681L130.107 33.9407" stroke="#110041" stroke-width="4"/>
<path d="M135.764 73.5388L113.136 73.5388L113.136 50.9114" stroke="#110041" stroke-width="4"/>
<path d="M118.793 90.5095L96.1658 90.5095L96.1658 67.8821" stroke="#110041" stroke-width="4"/>
<path d="M101.822 107.48L79.1951 107.48L79.1951 84.8528" stroke="#110041" stroke-width="4"/>
<path d="M84.8528 124.451L62.2254 124.451L62.2254 101.824" stroke="#110041" stroke-width="4"/>
<path d="M67.8821 141.422L45.2547 141.422L45.2547 118.794" stroke="#110041" stroke-width="4"/>
<path d="M50.9114 158.392L28.2839 158.392L28.284 135.765" stroke="#110041" stroke-width="4"/>
<path d="M33.9407 175.362L11.3132 175.362L11.3133 152.735" stroke="#110041" stroke-width="4"/>
</svg>
