<svg width="187" height="187" viewBox="0 0 187 187" fill="none" xmlns="http://www.w3.org/2000/svg">
<path d="M-0.000232697 164.049L22.6272 164.049L22.6272 186.676" stroke="#110041" stroke-width="4"/>
<path d="M16.9705 147.078L39.5979 147.078L39.5979 169.706" stroke="#110041" stroke-width="4"/>
<path d="M33.9412 130.108L56.5686 130.108L56.5686 152.735" stroke="#110041" stroke-width="4"/>
<path d="M50.9119 113.137L73.5393 113.137L73.5393 135.764" stroke="#110041" stroke-width="4"/>
<path d="M67.8821 96.1662L90.5095 96.1662L90.5095 118.794" stroke="#110041" stroke-width="4"/>
<path d="M84.8528 79.1955L107.48 79.1955L107.48 101.823" stroke="#110041" stroke-width="4"/>
<path d="M101.823 62.2258L124.451 62.2258L124.451 84.8532" stroke="#110041" stroke-width="4"/>
<path d="M118.794 45.2551L141.421 45.2551L141.421 67.8825" stroke="#110041" stroke-width="4"/>
<path d="M135.764 28.2844L158.392 28.2844L158.392 50.9118" stroke="#110041" stroke-width="4"/>
<path d="M152.735 11.3137L175.363 11.3137L175.363 33.9411" stroke="#110041" stroke-width="4"/>
</svg>
