<svg width="187" height="187" viewBox="0 0 187 187" fill="none" xmlns="http://www.w3.org/2000/svg">
<path d="M164.049 186.676L164.049 164.049L186.676 164.049" stroke="#110041" stroke-width="4"/>
<path d="M147.078 169.705L147.078 147.078L169.706 147.078" stroke="#110041" stroke-width="4"/>
<path d="M130.108 152.735L130.108 130.107L152.735 130.107" stroke="#110041" stroke-width="4"/>
<path d="M113.137 135.764L113.137 113.136L135.764 113.136" stroke="#110041" stroke-width="4"/>
<path d="M96.1662 118.793L96.1662 96.1658L118.794 96.1658" stroke="#110041" stroke-width="4"/>
<path d="M79.1955 101.822L79.1955 79.1951L101.823 79.1951" stroke="#110041" stroke-width="4"/>
<path d="M62.2258 84.8528L62.2258 62.2254L84.8532 62.2254" stroke="#110041" stroke-width="4"/>
<path d="M45.2551 67.8821L45.2551 45.2547L67.8825 45.2547" stroke="#110041" stroke-width="4"/>
<path d="M28.2844 50.9114L28.2844 28.2839L50.9118 28.284" stroke="#110041" stroke-width="4"/>
<path d="M11.3137 33.9407L11.3137 11.3132L33.9411 11.3133" stroke="#110041" stroke-width="4"/>
</svg>
