<svg width="264" height="228" viewBox="0 0 264 228" fill="none" xmlns="http://www.w3.org/2000/svg">
<path vector-effect="non-scaling-stroke" d="M3.82836 226L132 4.00001L260.172 226H3.82836Z" fill="white" stroke="#110041" stroke-width="4"/>
<path vector-effect="non-scaling-stroke" d="M94.2297 114.2H97.3977V127.976H105.03V131H94.2297V114.2ZM111.493 126.032C111.509 126.384 111.589 126.712 111.733 127.016C111.893 127.304 112.101 127.56 112.357 127.784C112.629 127.992 112.933 128.16 113.269 128.288C113.621 128.4 113.989 128.456 114.373 128.456C115.125 128.456 115.701 128.328 116.101 128.072C116.501 127.8 116.789 127.48 116.965 127.112L119.557 128.552C119.413 128.856 119.213 129.176 118.957 129.512C118.701 129.832 118.365 130.128 117.949 130.4C117.549 130.672 117.053 130.896 116.461 131.072C115.885 131.248 115.205 131.336 114.421 131.336C113.525 131.336 112.709 131.192 111.973 130.904C111.237 130.616 110.597 130.2 110.053 129.656C109.525 129.112 109.109 128.448 108.805 127.664C108.517 126.88 108.373 125.992 108.373 125V124.856C108.373 123.944 108.525 123.112 108.829 122.36C109.149 121.608 109.581 120.968 110.125 120.44C110.669 119.912 111.301 119.504 112.021 119.216C112.757 118.912 113.541 118.76 114.373 118.76C115.397 118.76 116.277 118.944 117.013 119.312C117.749 119.664 118.357 120.12 118.837 120.68C119.317 121.224 119.669 121.832 119.893 122.504C120.117 123.16 120.229 123.8 120.229 124.424V126.032H111.493ZM114.349 121.496C113.581 121.496 112.957 121.696 112.477 122.096C111.997 122.48 111.685 122.928 111.541 123.44H117.157C117.061 122.88 116.757 122.416 116.245 122.048C115.749 121.68 115.117 121.496 114.349 121.496ZM123.188 119.096H126.716V114.2H129.74V119.096H134.036V121.976H129.74V127.4C129.74 127.88 129.956 128.12 130.388 128.12H133.604V131H128.564C128.02 131 127.572 130.824 127.22 130.472C126.884 130.12 126.716 129.672 126.716 129.128V121.976H123.188V119.096ZM141.412 116.12C141.412 115.816 141.468 115.528 141.58 115.256C141.708 114.968 141.876 114.728 142.084 114.536C142.292 114.328 142.532 114.168 142.804 114.056C143.076 113.928 143.372 113.864 143.692 113.864C143.996 113.864 144.284 113.928 144.556 114.056C144.844 114.168 145.092 114.328 145.3 114.536C145.508 114.728 145.668 114.968 145.78 115.256C145.908 115.528 145.972 115.816 145.972 116.12V119.048C145.972 119.656 145.764 120.168 145.348 120.584C144.948 121 144.444 121.208 143.836 121.208H142.3V119.336H143.452C143.884 119.336 144.1 119.096 144.1 118.616V118.328C143.972 118.376 143.836 118.4 143.692 118.4C143.372 118.4 143.076 118.344 142.804 118.232C142.532 118.104 142.292 117.936 142.084 117.728C141.876 117.52 141.708 117.28 141.58 117.008C141.468 116.736 141.412 116.44 141.412 116.12ZM156.707 122.456C156.707 122.84 156.907 123.12 157.307 123.296C157.707 123.456 158.435 123.592 159.491 123.704C160.707 123.832 161.699 124.2 162.467 124.808C163.235 125.4 163.619 126.232 163.619 127.304V127.448C163.619 128.632 163.187 129.576 162.323 130.28C161.459 130.984 160.243 131.336 158.675 131.336C157.747 131.336 156.955 131.216 156.299 130.976C155.643 130.736 155.099 130.44 154.667 130.088C154.235 129.72 153.899 129.32 153.659 128.888C153.435 128.44 153.283 128.008 153.203 127.592L155.987 126.68C156.115 127.192 156.379 127.64 156.779 128.024C157.195 128.408 157.827 128.6 158.675 128.6C159.427 128.6 159.939 128.488 160.211 128.264C160.499 128.024 160.643 127.768 160.643 127.496C160.643 127.336 160.603 127.192 160.523 127.064C160.459 126.92 160.331 126.792 160.139 126.68C159.947 126.552 159.683 126.448 159.347 126.368C159.027 126.288 158.619 126.224 158.123 126.176C156.779 126.064 155.707 125.72 154.907 125.144C154.123 124.552 153.731 123.688 153.731 122.552V122.408C153.731 121.816 153.859 121.296 154.115 120.848C154.371 120.4 154.707 120.024 155.123 119.72C155.539 119.4 156.019 119.16 156.563 119C157.107 118.84 157.667 118.76 158.243 118.76C158.995 118.76 159.643 118.856 160.187 119.048C160.747 119.224 161.219 119.464 161.603 119.768C161.987 120.056 162.299 120.384 162.539 120.752C162.779 121.104 162.963 121.448 163.091 121.784L160.355 122.888C160.211 122.456 159.963 122.12 159.611 121.88C159.259 121.624 158.803 121.496 158.243 121.496C157.731 121.496 157.347 121.592 157.091 121.784C156.835 121.96 156.707 122.184 156.707 122.456ZM101.145 159.096H104.673V154.2H107.697V159.096H111.993V161.976H107.697V167.4C107.697 167.88 107.913 168.12 108.345 168.12H111.561V171H106.521C105.977 171 105.529 170.824 105.177 170.472C104.841 170.12 104.673 169.672 104.673 169.128V161.976H101.145V159.096ZM123.881 169.272C123.561 170.024 123.113 170.56 122.537 170.88C121.961 171.184 121.289 171.336 120.521 171.336C119.801 171.336 119.121 171.2 118.481 170.928C117.857 170.656 117.305 170.256 116.825 169.728C116.345 169.2 115.961 168.56 115.673 167.808C115.401 167.056 115.265 166.2 115.265 165.24V164.856C115.265 163.912 115.401 163.064 115.673 162.312C115.945 161.56 116.313 160.92 116.777 160.392C117.241 159.864 117.777 159.464 118.385 159.192C119.009 158.904 119.673 158.76 120.377 158.76C121.225 158.76 121.905 158.904 122.417 159.192C122.945 159.48 123.361 159.928 123.665 160.536H124.097V159.096H127.121V167.4C127.121 167.88 127.337 168.12 127.769 168.12H128.225V171H126.161C125.617 171 125.169 170.84 124.817 170.52C124.481 170.2 124.313 169.784 124.313 169.272H123.881ZM121.193 168.456C122.073 168.456 122.777 168.168 123.305 167.592C123.833 167 124.097 166.2 124.097 165.192V164.904C124.097 163.896 123.833 163.104 123.305 162.528C122.777 161.936 122.073 161.64 121.193 161.64C120.313 161.64 119.609 161.936 119.081 162.528C118.553 163.104 118.289 163.896 118.289 164.904V165.192C118.289 166.2 118.553 167 119.081 167.592C119.609 168.168 120.313 168.456 121.193 168.456ZM130.8 168.12H134.976V157.08H130.944V154.2H138V168.12H141.888V171H130.8V168.12ZM149.551 163.464H150.127L153.295 159.096H156.607V159.24L152.767 164.688V165.12L156.991 170.856V171H153.535L150.127 166.344H149.551V171H146.527V154.2H149.551V163.464Z" fill="#110041"/>
</svg>
