<svg width="304" height="304" viewBox="0 0 304 304" fill="none" xmlns="http://www.w3.org/2000/svg">
<path vector-effect="non-scaling-stroke" d="M23.8282 226L152 4.00001L280.172 226H23.8282Z" fill="white" stroke="#110041" stroke-width="4"/>
<path vector-effect="non-scaling-stroke" d="M114.23 114.2H117.398V127.976H125.03V131H114.23V114.2ZM131.493 126.032C131.509 126.384 131.589 126.712 131.733 127.016C131.893 127.304 132.101 127.56 132.357 127.784C132.629 127.992 132.933 128.16 133.269 128.288C133.621 128.4 133.989 128.456 134.373 128.456C135.125 128.456 135.701 128.328 136.101 128.072C136.501 127.8 136.789 127.48 136.965 127.112L139.557 128.552C139.413 128.856 139.213 129.176 138.957 129.512C138.701 129.832 138.365 130.128 137.949 130.4C137.549 130.672 137.053 130.896 136.461 131.072C135.885 131.248 135.205 131.336 134.421 131.336C133.525 131.336 132.709 131.192 131.973 130.904C131.237 130.616 130.597 130.2 130.053 129.656C129.525 129.112 129.109 128.448 128.805 127.664C128.517 126.88 128.373 125.992 128.373 125V124.856C128.373 123.944 128.525 123.112 128.829 122.36C129.149 121.608 129.581 120.968 130.125 120.44C130.669 119.912 131.301 119.504 132.021 119.216C132.757 118.912 133.541 118.76 134.373 118.76C135.397 118.76 136.277 118.944 137.013 119.312C137.749 119.664 138.357 120.12 138.837 120.68C139.317 121.224 139.669 121.832 139.893 122.504C140.117 123.16 140.229 123.8 140.229 124.424V126.032H131.493ZM134.349 121.496C133.581 121.496 132.957 121.696 132.477 122.096C131.997 122.48 131.685 122.928 131.541 123.44H137.157C137.061 122.88 136.757 122.416 136.245 122.048C135.749 121.68 135.117 121.496 134.349 121.496ZM143.188 119.096H146.716V114.2H149.74V119.096H154.036V121.976H149.74V127.4C149.74 127.88 149.956 128.12 150.388 128.12H153.604V131H148.564C148.02 131 147.572 130.824 147.22 130.472C146.884 130.12 146.716 129.672 146.716 129.128V121.976H143.188V119.096ZM161.412 116.12C161.412 115.816 161.468 115.528 161.58 115.256C161.708 114.968 161.876 114.728 162.084 114.536C162.292 114.328 162.532 114.168 162.804 114.056C163.076 113.928 163.372 113.864 163.692 113.864C163.996 113.864 164.284 113.928 164.556 114.056C164.844 114.168 165.092 114.328 165.3 114.536C165.508 114.728 165.668 114.968 165.78 115.256C165.908 115.528 165.972 115.816 165.972 116.12V119.048C165.972 119.656 165.764 120.168 165.348 120.584C164.948 121 164.444 121.208 163.836 121.208H162.3V119.336H163.452C163.884 119.336 164.1 119.096 164.1 118.616V118.328C163.972 118.376 163.836 118.4 163.692 118.4C163.372 118.4 163.076 118.344 162.804 118.232C162.532 118.104 162.292 117.936 162.084 117.728C161.876 117.52 161.708 117.28 161.58 117.008C161.468 116.736 161.412 116.44 161.412 116.12ZM176.707 122.456C176.707 122.84 176.907 123.12 177.307 123.296C177.707 123.456 178.435 123.592 179.491 123.704C180.707 123.832 181.699 124.2 182.467 124.808C183.235 125.4 183.619 126.232 183.619 127.304V127.448C183.619 128.632 183.187 129.576 182.323 130.28C181.459 130.984 180.243 131.336 178.675 131.336C177.747 131.336 176.955 131.216 176.299 130.976C175.643 130.736 175.099 130.44 174.667 130.088C174.235 129.72 173.899 129.32 173.659 128.888C173.435 128.44 173.283 128.008 173.203 127.592L175.987 126.68C176.115 127.192 176.379 127.64 176.779 128.024C177.195 128.408 177.827 128.6 178.675 128.6C179.427 128.6 179.939 128.488 180.211 128.264C180.499 128.024 180.643 127.768 180.643 127.496C180.643 127.336 180.603 127.192 180.523 127.064C180.459 126.92 180.331 126.792 180.139 126.68C179.947 126.552 179.683 126.448 179.347 126.368C179.027 126.288 178.619 126.224 178.123 126.176C176.779 126.064 175.707 125.72 174.907 125.144C174.123 124.552 173.731 123.688 173.731 122.552V122.408C173.731 121.816 173.859 121.296 174.115 120.848C174.371 120.4 174.707 120.024 175.123 119.72C175.539 119.4 176.019 119.16 176.563 119C177.107 118.84 177.667 118.76 178.243 118.76C178.995 118.76 179.643 118.856 180.187 119.048C180.747 119.224 181.219 119.464 181.603 119.768C181.987 120.056 182.299 120.384 182.539 120.752C182.779 121.104 182.963 121.448 183.091 121.784L180.355 122.888C180.211 122.456 179.963 122.12 179.611 121.88C179.259 121.624 178.803 121.496 178.243 121.496C177.731 121.496 177.347 121.592 177.091 121.784C176.835 121.96 176.707 122.184 176.707 122.456ZM121.145 159.096H124.673V154.2H127.697V159.096H131.993V161.976H127.697V167.4C127.697 167.88 127.913 168.12 128.345 168.12H131.561V171H126.521C125.977 171 125.529 170.824 125.177 170.472C124.841 170.12 124.673 169.672 124.673 169.128V161.976H121.145V159.096ZM143.881 169.272C143.561 170.024 143.113 170.56 142.537 170.88C141.961 171.184 141.289 171.336 140.521 171.336C139.801 171.336 139.121 171.2 138.481 170.928C137.857 170.656 137.305 170.256 136.825 169.728C136.345 169.2 135.961 168.56 135.673 167.808C135.401 167.056 135.265 166.2 135.265 165.24V164.856C135.265 163.912 135.401 163.064 135.673 162.312C135.945 161.56 136.313 160.92 136.777 160.392C137.241 159.864 137.777 159.464 138.385 159.192C139.009 158.904 139.673 158.76 140.377 158.76C141.225 158.76 141.905 158.904 142.417 159.192C142.945 159.48 143.361 159.928 143.665 160.536H144.097V159.096H147.121V167.4C147.121 167.88 147.337 168.12 147.769 168.12H148.225V171H146.161C145.617 171 145.169 170.84 144.817 170.52C144.481 170.2 144.313 169.784 144.313 169.272H143.881ZM141.193 168.456C142.073 168.456 142.777 168.168 143.305 167.592C143.833 167 144.097 166.2 144.097 165.192V164.904C144.097 163.896 143.833 163.104 143.305 162.528C142.777 161.936 142.073 161.64 141.193 161.64C140.313 161.64 139.609 161.936 139.081 162.528C138.553 163.104 138.289 163.896 138.289 164.904V165.192C138.289 166.2 138.553 167 139.081 167.592C139.609 168.168 140.313 168.456 141.193 168.456ZM150.8 168.12H154.976V157.08H150.944V154.2H158V168.12H161.888V171H150.8V168.12ZM169.551 163.464H170.127L173.295 159.096H176.607V159.24L172.767 164.688V165.12L176.991 170.856V171H173.535L170.127 166.344H169.551V171H166.527V154.2H169.551V163.464Z" fill="#110041"/>
</svg>
