<svg width="1440" height="232" viewBox="0 0 1440 232" fill="none" xmlns="http://www.w3.org/2000/svg">
<line x1="2" y1="8.74228e-08" x2="2" y2="40" stroke="#110041" stroke-width="4"/>
<line x1="42" y1="8.74228e-08" x2="42" y2="40" stroke="#110041" stroke-width="4"/>
<line x1="82" y1="8.74228e-08" x2="82" y2="40" stroke="#110041" stroke-width="4"/>
<line x1="122" y1="8.74228e-08" x2="122" y2="40" stroke="#110041" stroke-width="4"/>
<line x1="162" y1="8.74228e-08" x2="162" y2="40" stroke="#110041" stroke-width="4"/>
<line x1="202" y1="8.74228e-08" x2="202" y2="40" stroke="#110041" stroke-width="4"/>
<line x1="242" y1="8.74228e-08" x2="242" y2="40" stroke="#110041" stroke-width="4"/>
<line x1="282" y1="8.74228e-08" x2="282" y2="40" stroke="#110041" stroke-width="4"/>
<line x1="322" y1="8.74228e-08" x2="322" y2="40" stroke="#110041" stroke-width="4"/>
<line x1="362" y1="8.74228e-08" x2="362" y2="40" stroke="#110041" stroke-width="4"/>
<line x1="402" y1="8.74228e-08" x2="402" y2="40" stroke="#110041" stroke-width="4"/>
<line x1="442" y1="8.74228e-08" x2="442" y2="40" stroke="#110041" stroke-width="4"/>
<line x1="482" y1="8.74228e-08" x2="482" y2="40" stroke="#110041" stroke-width="4"/>
<line x1="522" y1="8.74228e-08" x2="522" y2="40" stroke="#110041" stroke-width="4"/>
<line x1="562" y1="8.74228e-08" x2="562" y2="40" stroke="#110041" stroke-width="4"/>
<line x1="602" y1="8.74228e-08" x2="602" y2="40" stroke="#110041" stroke-width="4"/>
<line x1="642" y1="8.74228e-08" x2="642" y2="40" stroke="#110041" stroke-width="4"/>
<line x1="682" y1="8.74228e-08" x2="682" y2="40" stroke="#110041" stroke-width="4"/>
<line x1="722" y1="8.74228e-08" x2="722" y2="40" stroke="#110041" stroke-width="4"/>
<line x1="762" y1="8.74228e-08" x2="762" y2="40" stroke="#110041" stroke-width="4"/>
<line x1="802" y1="8.74228e-08" x2="802" y2="40" stroke="#110041" stroke-width="4"/>
<line x1="842" y1="8.74228e-08" x2="842" y2="40" stroke="#110041" stroke-width="4"/>
<line x1="882" y1="8.74228e-08" x2="882" y2="40" stroke="#110041" stroke-width="4"/>
<line x1="922" y1="8.74228e-08" x2="922" y2="40" stroke="#110041" stroke-width="4"/>
<line x1="962" y1="8.74228e-08" x2="962" y2="40" stroke="#110041" stroke-width="4"/>
<line x1="1002" y1="8.74228e-08" x2="1002" y2="40" stroke="#110041" stroke-width="4"/>
<line x1="1042" y1="8.74228e-08" x2="1042" y2="40" stroke="#110041" stroke-width="4"/>
<line x1="1082" y1="8.74228e-08" x2="1082" y2="40" stroke="#110041" stroke-width="4"/>
<line x1="1122" y1="8.74228e-08" x2="1122" y2="40" stroke="#110041" stroke-width="4"/>
<line x1="1162" y1="8.74228e-08" x2="1162" y2="40" stroke="#110041" stroke-width="4"/>
<line x1="1202" y1="8.74228e-08" x2="1202" y2="40" stroke="#110041" stroke-width="4"/>
<line x1="1242" y1="8.74228e-08" x2="1242" y2="40" stroke="#110041" stroke-width="4"/>
<line x1="1282" y1="8.74228e-08" x2="1282" y2="40" stroke="#110041" stroke-width="4"/>
<line x1="1322" y1="8.74228e-08" x2="1322" y2="40" stroke="#110041" stroke-width="4"/>
<line x1="1362" y1="8.74228e-08" x2="1362" y2="40" stroke="#110041" stroke-width="4"/>
<line x1="1402" y1="8.74228e-08" x2="1402" y2="40" stroke="#110041" stroke-width="4"/>
<line x1="2" y1="64" x2="2" y2="104" stroke="#110041" stroke-width="4"/>
<line x1="42" y1="64" x2="42" y2="104" stroke="#110041" stroke-width="4"/>
<line x1="82" y1="64" x2="82" y2="104" stroke="white" stroke-width="4"/>
<line x1="122" y1="64" x2="122" y2="104" stroke="white" stroke-width="4"/>
<line x1="162" y1="64" x2="162" y2="104" stroke="white" stroke-width="4"/>
<line x1="202" y1="64" x2="202" y2="104" stroke="#110041" stroke-width="4"/>
<line x1="242" y1="64" x2="242" y2="104" stroke="#110041" stroke-width="4"/>
<line x1="282" y1="64" x2="282" y2="104" stroke="#110041" stroke-width="4"/>
<line x1="322" y1="64" x2="322" y2="104" stroke="#110041" stroke-width="4"/>
<line x1="362" y1="64" x2="362" y2="104" stroke="#110041" stroke-width="4"/>
<line x1="402" y1="64" x2="402" y2="104" stroke="#110041" stroke-width="4"/>
<line x1="442" y1="64" x2="442" y2="104" stroke="#110041" stroke-width="4"/>
<line x1="482" y1="64" x2="482" y2="104" stroke="#110041" stroke-width="4"/>
<line x1="522" y1="64" x2="522" y2="104" stroke="#110041" stroke-width="4"/>
<line x1="562" y1="64" x2="562" y2="104" stroke="#110041" stroke-width="4"/>
<line x1="602" y1="64" x2="602" y2="104" stroke="#110041" stroke-width="4"/>
<line x1="642" y1="64" x2="642" y2="104" stroke="#110041" stroke-width="4"/>
<line x1="682" y1="64" x2="682" y2="104" stroke="#110041" stroke-width="4"/>
<line x1="722" y1="64" x2="722" y2="104" stroke="#110041" stroke-width="4"/>
<line x1="762" y1="64" x2="762" y2="104" stroke="#110041" stroke-width="4"/>
<line x1="802" y1="64" x2="802" y2="104" stroke="#110041" stroke-width="4"/>
<line x1="842" y1="64" x2="842" y2="104" stroke="#110041" stroke-width="4"/>
<line x1="882" y1="64" x2="882" y2="104" stroke="#110041" stroke-width="4"/>
<line x1="922" y1="64" x2="922" y2="104" stroke="#110041" stroke-width="4"/>
<line x1="962" y1="64" x2="962" y2="104" stroke="#110041" stroke-width="4"/>
<line x1="1002" y1="64" x2="1002" y2="104" stroke="#110041" stroke-width="4"/>
<line x1="1042" y1="64" x2="1042" y2="104" stroke="#110041" stroke-width="4"/>
<line x1="1082" y1="64" x2="1082" y2="104" stroke="#110041" stroke-width="4"/>
<line x1="1122" y1="64" x2="1122" y2="104" stroke="#110041" stroke-width="4"/>
<line x1="1162" y1="64" x2="1162" y2="104" stroke="#110041" stroke-width="4"/>
<line x1="1202" y1="64" x2="1202" y2="104" stroke="#110041" stroke-width="4"/>
<line x1="1242" y1="64" x2="1242" y2="104" stroke="#110041" stroke-width="4"/>
<line x1="1282" y1="64" x2="1282" y2="104" stroke="#110041" stroke-width="4"/>
<line x1="1322" y1="64" x2="1322" y2="104" stroke="#110041" stroke-width="4"/>
<line x1="1362" y1="64" x2="1362" y2="104" stroke="#110041" stroke-width="4"/>
<line x1="1402" y1="64" x2="1402" y2="104" stroke="#110041" stroke-width="4"/>
<line x1="2" y1="128" x2="2" y2="168" stroke="#110041" stroke-width="4"/>
<line x1="42" y1="128" x2="42" y2="168" stroke="#110041" stroke-width="4"/>
<line x1="82" y1="128" x2="82" y2="168" stroke="white" stroke-width="4"/>
<line x1="122" y1="128" x2="122" y2="168" stroke="#110041" stroke-width="4"/>
<line x1="162" y1="128" x2="162" y2="168" stroke="white" stroke-width="4"/>
<line x1="202" y1="128" x2="202" y2="168" stroke="white" stroke-width="4"/>
<line x1="242" y1="128" x2="242" y2="168" stroke="white" stroke-width="4"/>
<line x1="282" y1="128" x2="282" y2="168" stroke="white" stroke-width="4"/>
<line x1="322" y1="128" x2="322" y2="168" stroke="#110041" stroke-width="4"/>
<line x1="362" y1="128" x2="362" y2="168" stroke="#110041" stroke-width="4"/>
<line x1="402" y1="128" x2="402" y2="168" stroke="#110041" stroke-width="4"/>
<line x1="442" y1="128" x2="442" y2="168" stroke="#110041" stroke-width="4"/>
<line x1="482" y1="128" x2="482" y2="168" stroke="#110041" stroke-width="4"/>
<line x1="522" y1="128" x2="522" y2="168" stroke="#110041" stroke-width="4"/>
<line x1="562" y1="128" x2="562" y2="168" stroke="#110041" stroke-width="4"/>
<line x1="602" y1="128" x2="602" y2="168" stroke="#110041" stroke-width="4"/>
<line x1="642" y1="128" x2="642" y2="168" stroke="#110041" stroke-width="4"/>
<line x1="682" y1="128" x2="682" y2="168" stroke="#110041" stroke-width="4"/>
<line x1="722" y1="128" x2="722" y2="168" stroke="#110041" stroke-width="4"/>
<line x1="762" y1="128" x2="762" y2="168" stroke="#110041" stroke-width="4"/>
<line x1="802" y1="128" x2="802" y2="168" stroke="#110041" stroke-width="4"/>
<line x1="842" y1="128" x2="842" y2="168" stroke="#110041" stroke-width="4"/>
<line x1="882" y1="128" x2="882" y2="168" stroke="#110041" stroke-width="4"/>
<line x1="922" y1="128" x2="922" y2="168" stroke="#110041" stroke-width="4"/>
<line x1="962" y1="128" x2="962" y2="168" stroke="#110041" stroke-width="4"/>
<line x1="1002" y1="128" x2="1002" y2="168" stroke="#110041" stroke-width="4"/>
<line x1="1042" y1="128" x2="1042" y2="168" stroke="#110041" stroke-width="4"/>
<line x1="1082" y1="128" x2="1082" y2="168" stroke="#110041" stroke-width="4"/>
<line x1="1122" y1="128" x2="1122" y2="168" stroke="#110041" stroke-width="4"/>
<line x1="1162" y1="128" x2="1162" y2="168" stroke="#110041" stroke-width="4"/>
<line x1="1202" y1="128" x2="1202" y2="168" stroke="#110041" stroke-width="4"/>
<line x1="1242" y1="128" x2="1242" y2="168" stroke="#110041" stroke-width="4"/>
<line x1="1282" y1="128" x2="1282" y2="168" stroke="#110041" stroke-width="4"/>
<line x1="1322" y1="128" x2="1322" y2="168" stroke="#110041" stroke-width="4"/>
<line x1="1362" y1="128" x2="1362" y2="168" stroke="#110041" stroke-width="4"/>
<line x1="1402" y1="128" x2="1402" y2="168" stroke="#110041" stroke-width="4"/>
<line x1="2" y1="192" x2="2" y2="232" stroke="#110041" stroke-width="4"/>
<line x1="42" y1="192" x2="42" y2="232" stroke="white" stroke-width="4"/>
<line x1="82" y1="192" x2="82" y2="232" stroke="#110041" stroke-width="4"/>
<line x1="122" y1="192" x2="122" y2="232" stroke="#110041" stroke-width="4"/>
<line x1="162" y1="192" x2="162" y2="232" stroke="#110041" stroke-width="4"/>
<line x1="202" y1="192" x2="202" y2="232" stroke="#110041" stroke-width="4"/>
<line x1="242" y1="192" x2="242" y2="232" stroke="#110041" stroke-width="4"/>
<line x1="282" y1="192" x2="282" y2="232" stroke="white" stroke-width="4"/>
<line x1="322" y1="192" x2="322" y2="232" stroke="white" stroke-width="4"/>
<line x1="362" y1="192" x2="362" y2="232" stroke="white" stroke-width="4"/>
<line x1="402" y1="192" x2="402" y2="232" stroke="#110041" stroke-width="4"/>
<line x1="442" y1="192" x2="442" y2="232" stroke="#110041" stroke-width="4"/>
<line x1="482" y1="192" x2="482" y2="232" stroke="#110041" stroke-width="4"/>
<line x1="522" y1="192" x2="522" y2="232" stroke="#110041" stroke-width="4"/>
<line x1="562" y1="192" x2="562" y2="232" stroke="#110041" stroke-width="4"/>
<line x1="602" y1="192" x2="602" y2="232" stroke="#110041" stroke-width="4"/>
<line x1="642" y1="192" x2="642" y2="232" stroke="#110041" stroke-width="4"/>
<line x1="682" y1="192" x2="682" y2="232" stroke="#110041" stroke-width="4"/>
<line x1="722" y1="192" x2="722" y2="232" stroke="#110041" stroke-width="4"/>
<line x1="762" y1="192" x2="762" y2="232" stroke="#110041" stroke-width="4"/>
<line x1="802" y1="192" x2="802" y2="232" stroke="#110041" stroke-width="4"/>
<line x1="842" y1="192" x2="842" y2="232" stroke="#110041" stroke-width="4"/>
<line x1="882" y1="192" x2="882" y2="232" stroke="#110041" stroke-width="4"/>
<line x1="922" y1="192" x2="922" y2="232" stroke="#110041" stroke-width="4"/>
<line x1="962" y1="192" x2="962" y2="232" stroke="#110041" stroke-width="4"/>
<line x1="1002" y1="192" x2="1002" y2="232" stroke="#110041" stroke-width="4"/>
<line x1="1042" y1="192" x2="1042" y2="232" stroke="#110041" stroke-width="4"/>
<line x1="1082" y1="192" x2="1082" y2="232" stroke="#110041" stroke-width="4"/>
<line x1="1122" y1="192" x2="1122" y2="232" stroke="#110041" stroke-width="4"/>
<line x1="1162" y1="192" x2="1162" y2="232" stroke="#110041" stroke-width="4"/>
<line x1="1202" y1="192" x2="1202" y2="232" stroke="#110041" stroke-width="4"/>
<line x1="1242" y1="192" x2="1242" y2="232" stroke="#110041" stroke-width="4"/>
<line x1="1282" y1="192" x2="1282" y2="232" stroke="#110041" stroke-width="4"/>
<line x1="1322" y1="192" x2="1322" y2="232" stroke="#110041" stroke-width="4"/>
<line x1="1362" y1="192" x2="1362" y2="232" stroke="#110041" stroke-width="4"/>
<line x1="1402" y1="192" x2="1402" y2="232" stroke="#110041" stroke-width="4"/>
</svg>
